<mxfile host="Electron" agent="Mozilla/5.0 (Windows NT 10.0; Win64; x64) AppleWebKit/537.36 (KHTML, like Gecko) draw.io/27.0.9 Chrome/134.0.6998.205 Electron/35.4.0 Safari/537.36" version="27.0.9">
  <diagram name="第 1 页" id="kbgM8EhjimW2EYSI9e9f">
    <mxGraphModel dx="1722" dy="1001" grid="1" gridSize="10" guides="1" tooltips="1" connect="1" arrows="1" fold="1" page="1" pageScale="1" pageWidth="1169" pageHeight="1654" math="0" shadow="0">
      <root>
        <mxCell id="0" />
        <mxCell id="1" parent="0" />
        <mxCell id="jEnN9HhB0GiYCTN-g_n6-1" value="&lt;h1&gt;&lt;span style=&quot;font-size: 20px;&quot;&gt;设备树简介&lt;/span&gt;&lt;/h1&gt;" style="ellipse;whiteSpace=wrap;html=1;fillColor=#f5f5f5;strokeColor=#666666;fontColor=#333333;fontStyle=1" vertex="1" parent="1">
          <mxGeometry x="130" y="369" width="151.67" height="70" as="geometry" />
        </mxCell>
        <mxCell id="jEnN9HhB0GiYCTN-g_n6-2" value="&lt;h2&gt;组成&lt;/h2&gt;" style="rounded=1;whiteSpace=wrap;html=1;fillColor=#fff2cc;strokeColor=#d6b656;fontStyle=1" vertex="1" parent="1">
          <mxGeometry x="310" y="379.5" width="80" height="31" as="geometry" />
        </mxCell>
        <mxCell id="jEnN9HhB0GiYCTN-g_n6-3" value="&lt;h2&gt;场景&lt;/h2&gt;" style="rounded=1;whiteSpace=wrap;html=1;fillColor=#ffe6cc;strokeColor=#d79b00;fontStyle=1" vertex="1" parent="1">
          <mxGeometry x="310" y="594" width="80" height="34" as="geometry" />
        </mxCell>
        <mxCell id="jEnN9HhB0GiYCTN-g_n6-4" value="" style="shape=curlyBracket;whiteSpace=wrap;html=1;rounded=1;labelPosition=left;verticalLabelPosition=middle;align=right;verticalAlign=middle;size=0.41650000000000204;fillColor=#f5f5f5;fontColor=#333333;strokeColor=#666666;" vertex="1" parent="1">
          <mxGeometry x="281.67" y="68" width="28.33" height="672" as="geometry" />
        </mxCell>
        <mxCell id="jEnN9HhB0GiYCTN-g_n6-5" value="&lt;h2&gt;由来&lt;/h2&gt;" style="rounded=1;whiteSpace=wrap;html=1;fillColor=#dae8fc;strokeColor=#6c8ebf;fontStyle=1" vertex="1" parent="1">
          <mxGeometry x="310" y="172" width="80" height="36" as="geometry" />
        </mxCell>
        <mxCell id="jEnN9HhB0GiYCTN-g_n6-24" value="" style="shape=curlyBracket;whiteSpace=wrap;html=1;rounded=1;labelPosition=left;verticalLabelPosition=middle;align=right;verticalAlign=middle;fillColor=#dae8fc;strokeColor=#6c8ebf;" vertex="1" parent="1">
          <mxGeometry x="390" y="160" width="20" height="60" as="geometry" />
        </mxCell>
        <mxCell id="jEnN9HhB0GiYCTN-g_n6-25" value="" style="shape=curlyBracket;whiteSpace=wrap;html=1;rounded=1;labelPosition=left;verticalLabelPosition=middle;align=right;verticalAlign=middle;fillColor=#fff2cc;strokeColor=#d6b656;" vertex="1" parent="1">
          <mxGeometry x="390" y="290" width="20" height="210" as="geometry" />
        </mxCell>
        <mxCell id="jEnN9HhB0GiYCTN-g_n6-26" value="" style="shape=curlyBracket;whiteSpace=wrap;html=1;rounded=1;labelPosition=left;verticalLabelPosition=middle;align=right;verticalAlign=middle;fillColor=#ffe6cc;strokeColor=#d79b00;" vertex="1" parent="1">
          <mxGeometry x="390" y="560" width="20" height="102" as="geometry" />
        </mxCell>
        <mxCell id="jEnN9HhB0GiYCTN-g_n6-27" value="&lt;h2&gt;概念&lt;/h2&gt;" style="rounded=1;whiteSpace=wrap;html=1;fillColor=#d5e8d4;strokeColor=#82b366;fontStyle=1" vertex="1" parent="1">
          <mxGeometry x="310" y="49" width="80" height="32" as="geometry" />
        </mxCell>
        <mxCell id="jEnN9HhB0GiYCTN-g_n6-34" value="" style="shape=curlyBracket;whiteSpace=wrap;html=1;rounded=1;labelPosition=left;verticalLabelPosition=middle;align=right;verticalAlign=middle;fillColor=#d5e8d4;strokeColor=#82b366;" vertex="1" parent="1">
          <mxGeometry x="390" y="20" width="20" height="90" as="geometry" />
        </mxCell>
        <mxCell id="jEnN9HhB0GiYCTN-g_n6-35" value="&lt;font style=&quot;font-size: 20px;&quot;&gt;🌻Make By Dakkk&lt;/font&gt;" style="html=1;shadow=0;dashed=0;shape=mxgraph.bootstrap.rrect;rSize=5;strokeColor=#1CA5B8;strokeWidth=1;fillColor=none;fontColor=#1CA5B8;whiteSpace=wrap;align=center;verticalAlign=middle;spacingLeft=0;fontStyle=1;fontSize=16;spacing=5;" vertex="1" parent="1">
          <mxGeometry x="150" y="208" width="111.67" height="70.39" as="geometry" />
        </mxCell>
        <mxCell id="jEnN9HhB0GiYCTN-g_n6-36" value="&lt;h2&gt;编译&lt;/h2&gt;" style="rounded=1;whiteSpace=wrap;html=1;fillColor=#f8cecc;strokeColor=#b85450;fontStyle=1" vertex="1" parent="1">
          <mxGeometry x="310" y="716" width="80" height="50" as="geometry" />
        </mxCell>
        <mxCell id="jEnN9HhB0GiYCTN-g_n6-43" value="" style="shape=curlyBracket;whiteSpace=wrap;html=1;rounded=1;labelPosition=left;verticalLabelPosition=middle;align=right;verticalAlign=middle;fillColor=#f8cecc;strokeColor=#b85450;" vertex="1" parent="1">
          <mxGeometry x="390" y="700" width="20" height="82" as="geometry" />
        </mxCell>
        <mxCell id="jEnN9HhB0GiYCTN-g_n6-44" value="&lt;span style=&quot;font-size: 16px;&quot;&gt;一种&lt;b&gt;硬件描述机制&lt;/b&gt;，用于描述硬件设备的特性、连接关系和配置信息&lt;/span&gt;" style="text;html=1;align=left;verticalAlign=middle;whiteSpace=wrap;rounded=0;fillColor=none;strokeColor=#82b366;dashed=1;fontSize=14;" vertex="1" parent="1">
          <mxGeometry x="410" y="8" width="530" height="30" as="geometry" />
        </mxCell>
        <mxCell id="jEnN9HhB0GiYCTN-g_n6-46" value="&lt;span style=&quot;font-size: 16px;&quot;&gt;&lt;b&gt;说人话：&lt;/b&gt;&quot;硬件说明书&quot;，告诉操作系统你的板子上有什么硬件，这些硬件在哪里，如何连接的&lt;/span&gt;" style="text;html=1;align=left;verticalAlign=middle;whiteSpace=wrap;rounded=0;fillColor=none;strokeColor=#82b366;dashed=1;fontSize=14;" vertex="1" parent="1">
          <mxGeometry x="410" y="60" width="530" height="60" as="geometry" />
        </mxCell>
        <mxCell id="jEnN9HhB0GiYCTN-g_n6-50" value="&lt;span style=&quot;font-size: 16px;&quot;&gt;&lt;b&gt;设备模型：&lt;/b&gt;使用pdev描述一个特定硬件设备，&lt;font style=&quot;color: light-dark(rgb(255, 0, 0), rgb(255, 255, 255));&quot;&gt;导致大量配套相关配置代码&lt;/font&gt;&lt;/span&gt;" style="text;html=1;align=left;verticalAlign=middle;whiteSpace=wrap;rounded=0;fillColor=none;strokeColor=#6c8ebf;dashed=1;fontSize=14;" vertex="1" parent="1">
          <mxGeometry x="410" y="148" width="530" height="30" as="geometry" />
        </mxCell>
        <mxCell id="jEnN9HhB0GiYCTN-g_n6-51" value="&lt;span style=&quot;font-size: 16px;&quot;&gt;&lt;b&gt;设备树：&lt;/b&gt;独立的结构体描述硬件，与具体的平台无关，可复用，可调&lt;/span&gt;" style="text;html=1;align=left;verticalAlign=middle;whiteSpace=wrap;rounded=0;fillColor=none;strokeColor=#6c8ebf;dashed=1;fontSize=14;" vertex="1" parent="1">
          <mxGeometry x="410" y="198.2" width="530" height="30" as="geometry" />
        </mxCell>
        <mxCell id="jEnN9HhB0GiYCTN-g_n6-59" value="&lt;font style=&quot;font-size: 14px;&quot;&gt;DTS(Device Tree Source)&lt;/font&gt;" style="swimlane;fontStyle=1;align=center;verticalAlign=top;childLayout=stackLayout;horizontal=1;startSize=30;horizontalStack=0;resizeParent=1;resizeParentMax=0;resizeLast=0;collapsible=1;marginBottom=0;whiteSpace=wrap;html=1;fillColor=#fff2cc;strokeColor=#d6b656;" vertex="1" parent="1">
          <mxGeometry x="410" y="260" width="530" height="56" as="geometry" />
        </mxCell>
        <mxCell id="jEnN9HhB0GiYCTN-g_n6-60" value="&lt;font style=&quot;font-size: 14px;&quot;&gt;作用：设备树的源文件，可读文本，&lt;/font&gt;&lt;font style=&quot;font-size: 14px;&quot;&gt;描述&lt;/font&gt;&lt;span style=&quot;font-size: 14px;&quot;&gt;硬件设备的结构体、属性和连接等&lt;/span&gt;" style="text;strokeColor=none;fillColor=none;align=left;verticalAlign=top;spacingLeft=4;spacingRight=4;overflow=hidden;rotatable=0;points=[[0,0.5],[1,0.5]];portConstraint=eastwest;whiteSpace=wrap;html=1;" vertex="1" parent="jEnN9HhB0GiYCTN-g_n6-59">
          <mxGeometry y="30" width="530" height="26" as="geometry" />
        </mxCell>
        <mxCell id="jEnN9HhB0GiYCTN-g_n6-86" style="edgeStyle=orthogonalEdgeStyle;rounded=0;orthogonalLoop=1;jettySize=auto;html=1;entryX=1;entryY=0.5;entryDx=0;entryDy=0;" edge="1" parent="1" source="jEnN9HhB0GiYCTN-g_n6-67" target="jEnN9HhB0GiYCTN-g_n6-73">
          <mxGeometry relative="1" as="geometry">
            <Array as="points">
              <mxPoint x="970" y="380" />
              <mxPoint x="970" y="428" />
            </Array>
          </mxGeometry>
        </mxCell>
        <mxCell id="jEnN9HhB0GiYCTN-g_n6-67" value="&lt;font style=&quot;font-size: 14px;&quot;&gt;DTSI(Device Tree Source Include)&lt;/font&gt;" style="swimlane;fontStyle=1;align=center;verticalAlign=top;childLayout=stackLayout;horizontal=1;startSize=30;horizontalStack=0;resizeParent=1;resizeParentMax=0;resizeLast=0;collapsible=1;marginBottom=0;whiteSpace=wrap;html=1;fillColor=#fff2cc;strokeColor=#d6b656;" vertex="1" parent="1">
          <mxGeometry x="410" y="330" width="530" height="56" as="geometry" />
        </mxCell>
        <mxCell id="jEnN9HhB0GiYCTN-g_n6-68" value="&lt;font style=&quot;font-size: 14px;&quot;&gt;作用：DTS的包含文件，定义可复用的设备树片段；可&lt;/font&gt;&lt;span style=&quot;font-size: 14px;&quot;&gt;多个 DTS 文件中包含和共享&lt;/span&gt;" style="text;strokeColor=none;fillColor=none;align=left;verticalAlign=top;spacingLeft=4;spacingRight=4;overflow=hidden;rotatable=0;points=[[0,0.5],[1,0.5]];portConstraint=eastwest;whiteSpace=wrap;html=1;" vertex="1" parent="jEnN9HhB0GiYCTN-g_n6-67">
          <mxGeometry y="30" width="530" height="26" as="geometry" />
        </mxCell>
        <mxCell id="jEnN9HhB0GiYCTN-g_n6-73" value="&lt;font style=&quot;font-size: 14px;&quot;&gt;DTC(Device Tree Compiler)&lt;/font&gt;" style="swimlane;fontStyle=1;align=center;verticalAlign=top;childLayout=stackLayout;horizontal=1;startSize=30;horizontalStack=0;resizeParent=1;resizeParentMax=0;resizeLast=0;collapsible=1;marginBottom=0;whiteSpace=wrap;html=1;fillColor=#fff2cc;strokeColor=#d6b656;" vertex="1" parent="1">
          <mxGeometry x="410" y="400" width="530" height="56" as="geometry" />
        </mxCell>
        <mxCell id="jEnN9HhB0GiYCTN-g_n6-74" value="&lt;font style=&quot;font-size: 14px;&quot;&gt;设备树的编译器，类似于 GCC；将文本格式转换为二进制格式&lt;/font&gt;" style="text;strokeColor=none;fillColor=none;align=left;verticalAlign=top;spacingLeft=4;spacingRight=4;overflow=hidden;rotatable=0;points=[[0,0.5],[1,0.5]];portConstraint=eastwest;whiteSpace=wrap;html=1;" vertex="1" parent="jEnN9HhB0GiYCTN-g_n6-73">
          <mxGeometry y="30" width="530" height="26" as="geometry" />
        </mxCell>
        <mxCell id="jEnN9HhB0GiYCTN-g_n6-81" value="&lt;font style=&quot;font-size: 14px;&quot;&gt;DTB(Device Tree Blob)&lt;/font&gt;" style="swimlane;fontStyle=1;align=center;verticalAlign=top;childLayout=stackLayout;horizontal=1;startSize=30;horizontalStack=0;resizeParent=1;resizeParentMax=0;resizeLast=0;collapsible=1;marginBottom=0;whiteSpace=wrap;html=1;fillColor=#fff2cc;strokeColor=#d6b656;" vertex="1" parent="1">
          <mxGeometry x="410" y="470" width="530" height="56" as="geometry" />
        </mxCell>
        <mxCell id="jEnN9HhB0GiYCTN-g_n6-82" value="&lt;font style=&quot;font-size: 14px;&quot;&gt;设备树的二进制表现形式，用于系统加载和解析&lt;/font&gt;" style="text;strokeColor=none;fillColor=none;align=left;verticalAlign=top;spacingLeft=4;spacingRight=4;overflow=hidden;rotatable=0;points=[[0,0.5],[1,0.5]];portConstraint=eastwest;whiteSpace=wrap;html=1;" vertex="1" parent="jEnN9HhB0GiYCTN-g_n6-81">
          <mxGeometry y="30" width="530" height="26" as="geometry" />
        </mxCell>
        <mxCell id="jEnN9HhB0GiYCTN-g_n6-84" style="edgeStyle=orthogonalEdgeStyle;rounded=0;orthogonalLoop=1;jettySize=auto;html=1;entryX=1.004;entryY=0.276;entryDx=0;entryDy=0;entryPerimeter=0;" edge="1" parent="1" source="jEnN9HhB0GiYCTN-g_n6-59" target="jEnN9HhB0GiYCTN-g_n6-68">
          <mxGeometry relative="1" as="geometry">
            <Array as="points">
              <mxPoint x="960" y="288" />
              <mxPoint x="960" y="367" />
            </Array>
          </mxGeometry>
        </mxCell>
        <mxCell id="jEnN9HhB0GiYCTN-g_n6-87" value="&lt;font style=&quot;font-size: 12px;&quot;&gt;开发人员编写&lt;br&gt;DTS和DTSI&lt;/font&gt;" style="edgeLabel;html=1;align=center;verticalAlign=middle;resizable=0;points=[];" vertex="1" connectable="0" parent="jEnN9HhB0GiYCTN-g_n6-84">
          <mxGeometry x="0.1406" y="2" relative="1" as="geometry">
            <mxPoint x="18" y="-5" as="offset" />
          </mxGeometry>
        </mxCell>
        <mxCell id="jEnN9HhB0GiYCTN-g_n6-88" value="&lt;span style=&quot;font-size: 12px;&quot;&gt;通过DTC编译&lt;/span&gt;" style="edgeLabel;html=1;align=center;verticalAlign=middle;resizable=0;points=[];" vertex="1" connectable="0" parent="jEnN9HhB0GiYCTN-g_n6-84">
          <mxGeometry x="0.1406" y="2" relative="1" as="geometry">
            <mxPoint x="8" y="65" as="offset" />
          </mxGeometry>
        </mxCell>
        <mxCell id="jEnN9HhB0GiYCTN-g_n6-90" value="&lt;span style=&quot;font-size: 12px;&quot;&gt;转换为DTB&lt;/span&gt;" style="edgeLabel;html=1;align=center;verticalAlign=middle;resizable=0;points=[];" vertex="1" connectable="0" parent="jEnN9HhB0GiYCTN-g_n6-84">
          <mxGeometry x="0.1406" y="2" relative="1" as="geometry">
            <mxPoint x="8" y="135" as="offset" />
          </mxGeometry>
        </mxCell>
        <mxCell id="jEnN9HhB0GiYCTN-g_n6-89" style="edgeStyle=orthogonalEdgeStyle;rounded=0;orthogonalLoop=1;jettySize=auto;html=1;entryX=1.001;entryY=-0.069;entryDx=0;entryDy=0;entryPerimeter=0;" edge="1" parent="1" source="jEnN9HhB0GiYCTN-g_n6-74" target="jEnN9HhB0GiYCTN-g_n6-82">
          <mxGeometry relative="1" as="geometry">
            <Array as="points">
              <mxPoint x="960" y="443" />
              <mxPoint x="960" y="498" />
            </Array>
          </mxGeometry>
        </mxCell>
        <mxCell id="jEnN9HhB0GiYCTN-g_n6-91" value="&lt;span style=&quot;font-size: 16px;&quot;&gt;&lt;b&gt;板卡DTB&lt;/b&gt;所在：&lt;/span&gt;&lt;span style=&quot;font-size: 16px;&quot;&gt;通过ls -l /boot/ 命令可以查看&lt;/span&gt;" style="text;html=1;align=left;verticalAlign=middle;whiteSpace=wrap;rounded=0;fillColor=none;strokeColor=#d79b00;dashed=1;fontSize=14;" vertex="1" parent="1">
          <mxGeometry x="410" y="550" width="530" height="30" as="geometry" />
        </mxCell>
        <mxCell id="jEnN9HhB0GiYCTN-g_n6-92" value="&lt;span style=&quot;font-size: 16px;&quot;&gt;&lt;b&gt;SDK的DTB和D&lt;/b&gt;&lt;/span&gt;&lt;b style=&quot;font-size: 16px;&quot;&gt;T&lt;/b&gt;&lt;span style=&quot;font-size: 16px;&quot;&gt;&lt;b&gt;S&lt;/b&gt;：&lt;/span&gt;&lt;span style=&quot;font-size: 16px;&quot;&gt;kernel/arch/arm64/boot/dts/rockchip/ 目录下&lt;/span&gt;" style="text;html=1;align=left;verticalAlign=middle;whiteSpace=wrap;rounded=0;fillColor=none;strokeColor=#d79b00;dashed=1;fontSize=14;" vertex="1" parent="1">
          <mxGeometry x="410" y="596" width="530" height="30" as="geometry" />
        </mxCell>
        <mxCell id="jEnN9HhB0GiYCTN-g_n6-93" value="&lt;span style=&quot;font-size: 16px;&quot;&gt;&lt;b&gt;总结&lt;/b&gt;：&lt;/span&gt;&lt;span style=&quot;font-size: 16px;&quot;&gt;kernel/arch/arm64/boot/dts 目录下可以看到设备树源文件&lt;/span&gt;" style="text;html=1;align=left;verticalAlign=middle;whiteSpace=wrap;rounded=0;fillColor=none;strokeColor=#d79b00;dashed=1;fontSize=14;" vertex="1" parent="1">
          <mxGeometry x="410" y="640" width="530" height="30" as="geometry" />
        </mxCell>
        <mxCell id="jEnN9HhB0GiYCTN-g_n6-94" value="&lt;span style=&quot;font-size: 16px;&quot;&gt;&lt;b&gt;编译工具：&lt;/b&gt;/内核源码/scripts/dtc/ 目录下 ， 内核编译时会自动编译&lt;/span&gt;" style="text;html=1;align=left;verticalAlign=middle;whiteSpace=wrap;rounded=0;fillColor=none;strokeColor=#b85450;dashed=1;fontSize=14;" vertex="1" parent="1">
          <mxGeometry x="410" y="686" width="530" height="30" as="geometry" />
        </mxCell>
        <mxCell id="jEnN9HhB0GiYCTN-g_n6-95" value="&lt;span style=&quot;font-size: 16px;&quot;&gt;&lt;b&gt;编译：&lt;/b&gt;dtc -I dtb -O dts -o output.dts input.dtb&lt;/span&gt;" style="text;html=1;align=left;verticalAlign=middle;whiteSpace=wrap;rounded=0;fillColor=none;strokeColor=#b85450;dashed=1;fontSize=14;" vertex="1" parent="1">
          <mxGeometry x="410" y="726" width="530" height="30" as="geometry" />
        </mxCell>
        <mxCell id="jEnN9HhB0GiYCTN-g_n6-96" value="&lt;span style=&quot;font-size: 16px;&quot;&gt;&lt;b&gt;反编译：&lt;/b&gt;dtc -I dtb -O dts -o output.dts input.dtb&lt;/span&gt;" style="text;html=1;align=left;verticalAlign=middle;whiteSpace=wrap;rounded=0;fillColor=none;strokeColor=#b85450;dashed=1;fontSize=14;" vertex="1" parent="1">
          <mxGeometry x="410" y="766" width="530" height="30" as="geometry" />
        </mxCell>
      </root>
    </mxGraphModel>
  </diagram>
</mxfile>
